<?xml version="1.0" encoding="utf-8"?>
<!-- Generator: Adobe Illustrator 19.1.0, SVG Export Plug-In . SVG Version: 6.00 Build 0)  -->
<svg version="1.1" id="Layer_1" xmlns="http://www.w3.org/2000/svg" xmlns:xlink="http://www.w3.org/1999/xlink" x="0px" y="0px"
	 viewBox="0 0 223.6 158" style="enable-background:new 0 0 223.6 158;" xml:space="preserve">
<style type="text/css">
	.st0{fill:#FFFFFF;}
</style>
<path class="st0" d="M201.4,151.7H22.2c-3,0-5.5-2.3-5.8-5.2L5.8,32.6c-0.2-2.5,1.2-4.9,3.5-5.9c2.3-1,5-0.3,6.7,1.6l51.2,60.7
	l39.3-79.5c0.9-1.9,2.8-3.1,4.8-3.2c0.2,0,0.6,0,0.9,0c2.1,0.1,4.1,1.4,5,3.2l39.3,79.5l51.2-60.7c1.6-1.9,4.3-2.6,6.7-1.6
	c2.3,1,3.8,3.4,3.5,5.9l-10.6,113.8C206.9,149.4,204.4,151.7,201.4,151.7z M27.4,140.1h168.7l8.4-90.1l-45,53.4
	c-1.3,1.5-3.2,2.2-5.1,2c-1.9-0.2-3.6-1.4-4.5-3.2l-38.2-77.3l-38.2,77.3c-0.9,1.8-2.6,2.9-4.5,3.2c-2,0.2-3.9-0.5-5.1-2L19,49.9
	L27.4,140.1z"/>
</svg>
